<?xml version="1.0" ?><svg viewBox="0 0 512 512" xmlns="http://www.w3.org/2000/svg"><defs><style>.cls-1{fill:#a5c7e9;}.cls-2{fill:#3f6db5;}</style></defs><g data-name="Layer 3" id="Layer_3"><path class="cls-1" d="M353.34,256.18A68.64,68.64,0,1,0,278.13,157a81.79,81.79,0,0,1,27.76,19.14A97.33,97.33,0,0,0,141.2,246.4c0,1.15,0,2.3.07,3.44a68.64,68.64,0,1,0-26.88,131.79H312.52a68.64,68.64,0,0,0,23.33-133.19c0-.68,0-1.36,0-2v-.48l10.52,4.61Z"/></g><g id="Outline"><path class="cls-2" d="M338.82,90.13A7.09,7.09,0,0,0,345.9,83V60.68a7.09,7.09,0,1,0-14.17,0V83A7.09,7.09,0,0,0,338.82,90.13Z"/><path class="cls-2" d="M467.41,182H444.86a7.09,7.09,0,0,0,0,14.17h22.55a7.09,7.09,0,1,0,0-14.17Z"/><path class="cls-2" d="M413.8,121.19a7.07,7.07,0,0,0,5-2.08l31.9-31.89a7.09,7.09,0,0,0-10-10l-31.89,31.89a7.09,7.09,0,0,0,5,12.1Z"/><path class="cls-2" d="M418.81,259.06a7.09,7.09,0,0,0-10,10L440.68,301a7.09,7.09,0,1,0,10-10Z"/><path class="cls-2" d="M258.82,119.11a7.09,7.09,0,0,0,10-10L237,77.2a7.09,7.09,0,0,0-10,10Z"/><path class="cls-2" d="M256,370.5a7.1,7.1,0,0,0-7.09,7.09v22.55a7.09,7.09,0,1,0,14.18,0V377.59A7.09,7.09,0,0,0,256,370.5Z"/><path class="cls-2" d="M161.07,370.5a7.09,7.09,0,0,0-7.09,7.09v22.55a7.09,7.09,0,1,0,14.17,0V377.59A7.09,7.09,0,0,0,161.07,370.5Z"/><path class="cls-2" d="M208.53,370.5a7.09,7.09,0,0,0-7.08,7.09v22.55a7.09,7.09,0,1,0,14.17,0V377.59A7.09,7.09,0,0,0,208.53,370.5Z"/><path class="cls-2" d="M232.26,416.67a7.09,7.09,0,0,0-7.09,7.09v22.55a7.09,7.09,0,1,0,14.17,0V423.76A7.09,7.09,0,0,0,232.26,416.67Z"/><path class="cls-2" d="M184.81,416.67a7.1,7.1,0,0,0-7.09,7.09v22.55a7.09,7.09,0,0,0,14.18,0V423.76A7.1,7.1,0,0,0,184.81,416.67Z"/><path class="cls-2" d="M412.72,185a75.3,75.3,0,0,0-6.31-30.3,7.09,7.09,0,0,0-13,5.68,61.61,61.61,0,0,1-41.16,84.26,6.85,6.85,0,0,0-2.1.92A74.46,74.46,0,0,0,339,240.23a104.42,104.42,0,0,0-54.26-87.79,61.56,61.56,0,0,1,95.75-11,7.09,7.09,0,0,0,10-10,75.72,75.72,0,0,0-118.75,15A102.11,102.11,0,0,0,236,140.07c-54.49,0-99.24,43-102.88,97.15a75.72,75.72,0,1,0-17.21,149.46h17.62a7.09,7.09,0,0,0,0-14.17H115.89A61.55,61.55,0,1,1,137.45,253.3a7.08,7.08,0,0,0,9.12-4.15,327.39,327.39,0,0,0,.45-4.78c0-49.7,39.91-90.13,89-90.13,46,0,84.52,36.27,88.6,82A75.77,75.77,0,0,0,236.3,311a7.09,7.09,0,1,0,14.17,0A61.54,61.54,0,1,1,312,372.51H292.39a7.09,7.09,0,1,0,0,14.17H312A75.7,75.7,0,0,0,363.85,255.8,75.63,75.63,0,0,0,412.72,185Z"/></g></svg>